<?xml version="1.0" encoding="utf-8"?>
<!-- Generator: Adobe Illustrator 23.0.0, SVG Export Plug-In . SVG Version: 6.00 Build 0)  -->
<svg version="1.1" id="Ebene_1" xmlns="http://www.w3.org/2000/svg" xmlns:xlink="http://www.w3.org/1999/xlink" x="0px" y="0px"
	 viewBox="0 0 200 200" style="enable-background:new 0 0 200 200;" xml:space="preserve">
<style type="text/css">
	.st0{fill:#00C853;}
	.st1{fill:#8C9EFF;}
	.st2{fill:#69F0AE;}
	.st3{fill:#FFF9C4;}
	.st4{fill:#1A237E;}
</style>
<g>
	<g>
		<path class="st0" d="M100,12.51c32.21,0,58.32,26.11,58.32,58.32c0,0.05,0,0.1,0,0.15c-0.08-15.87-12.72-29.08-28.6-29.3
			C113.43,41.45,100,54.59,100,70.84c0-16.23-13.27-29.37-29.55-29.16C54.5,41.89,41.79,55.13,41.68,71.05
			c-0.01-0.07-0.01-0.15-0.01-0.22C41.68,38.62,67.79,12.51,100,12.51z"/>
	</g>
	<g>
		<path class="st1" d="M129.16,56.26c8.05,0,14.58,6.53,14.58,14.58s-6.53,14.58-14.58,14.58s-14.58-6.53-14.58-14.58
			S121.11,56.26,129.16,56.26z M134.02,70.84c0-2.68-2.18-4.86-4.86-4.86c-2.68,0-4.86,2.18-4.86,4.86c0,2.68,2.18,4.86,4.86,4.86
			C131.85,75.7,134.02,73.52,134.02,70.84z"/>
	</g>
	<g>
		<path class="st1" d="M70.84,56.26c8.05,0,14.58,6.53,14.58,14.58s-6.53,14.58-14.58,14.58s-14.58-6.53-14.58-14.58
			S62.79,56.26,70.84,56.26z M75.7,70.84c0-2.68-2.18-4.86-4.86-4.86c-2.68,0-4.86,2.18-4.86,4.86c0,2.68,2.18,4.86,4.86,4.86
			C73.52,75.7,75.7,73.52,75.7,70.84z"/>
	</g>
	<g>
		<circle class="st2" cx="129.16" cy="70.84" r="4.86"/>
	</g>
	<g>
		<circle class="st2" cx="70.84" cy="70.84" r="4.86"/>
	</g>
	<g>
		<path class="st2" d="M100,129.16c32.17,0,58.24-26.03,58.32-58.18c0,0.05,0,0.1,0,0.15v58.3c0,32.07-26,58.06-58.06,58.06H41.94
			C74.1,187.49,100.15,161.33,100,129.16z"/>
	</g>
	<g>
		<path class="st3" d="M100,70.84c0-16.25,13.43-29.39,29.72-29.16c15.88,0.23,28.53,13.43,28.6,29.3
			c-0.08,32.15-26.16,58.18-58.32,58.18c-32.14,0-58.21-25.99-58.32-58.11c0.11-15.93,12.82-29.17,28.77-29.38
			C86.73,41.46,100,54.6,100,70.84z M143.74,70.84c0-8.05-6.53-14.58-14.58-14.58s-14.58,6.53-14.58,14.58s6.53,14.58,14.58,14.58
			S143.74,78.89,143.74,70.84z M85.42,70.84c0-8.05-6.53-14.58-14.58-14.58s-14.58,6.53-14.58,14.58s6.53,14.58,14.58,14.58
			S85.42,78.89,85.42,70.84z"/>
	</g>
	<g>
		<path class="st0" d="M100,129.16c0.15,32.17-25.9,58.32-58.06,58.32h-0.26V71.27c0-0.07,0-0.15,0.01-0.22
			C41.79,103.17,67.86,129.16,100,129.16z"/>
	</g>
	<g>
		<path class="st4" d="M100,94.06c-2.09,0-3.78-1.69-3.78-3.78V70.84c0-8.84,3.49-17.15,9.82-23.39c6.37-6.28,14.8-9.67,23.74-9.55
			c17.74,0.25,32.24,15.09,32.33,33.06v0.16c0,2.09-1.69,3.78-3.78,3.78s-3.78-1.69-3.78-3.78v-0.15
			c-0.07-13.87-11.22-25.33-24.87-25.52c-6.91-0.07-13.41,2.52-18.33,7.37c-4.88,4.81-7.56,11.2-7.56,18.01v19.44
			C103.78,92.37,102.09,94.06,100,94.06z"/>
	</g>
	<g>
		<path class="st4" d="M100.26,191.27H41.94c-2.09,0-3.78-1.69-3.78-3.78s1.69-3.78,3.78-3.78h58.32
			c29.93,0,54.28-24.35,54.28-54.28v-58.3c0-2.09,1.69-3.78,3.78-3.78s3.78,1.69,3.78,3.78v58.3
			C162.11,163.53,134.36,191.27,100.26,191.27z"/>
	</g>
	<g>
		<path class="st4" d="M41.68,191.27c-2.09,0-3.78-1.69-3.78-3.78V71.27c0-2.09,1.69-3.78,3.78-3.78c2.09,0,3.78,1.69,3.78,3.78
			v116.22C45.46,189.58,43.76,191.27,41.68,191.27z"/>
	</g>
	<g>
		<path class="st4" d="M41.94,191.27h-0.26c-2.09,0-3.78-1.69-3.78-3.78s1.69-3.78,3.78-3.78h0.26c14.54,0,28.21-5.68,38.47-15.99
			c10.26-10.31,15.88-24,15.81-38.54c-0.01-2.09,1.68-3.79,3.76-3.8c0.01,0,0.01,0,0.02,0c2.08,0,3.77,1.68,3.78,3.76
			c0.08,16.57-6.32,32.16-18.01,43.91C74.08,184.8,58.51,191.27,41.94,191.27z"/>
	</g>
	<g>
		<path class="st4" d="M100,132.94c-34.09,0-61.93-27.71-62.1-61.79c0-0.11-0.01-0.21-0.01-0.32c0-34.24,27.86-62.11,62.11-62.11
			s62.11,27.86,62.11,62.11v0.15C162.02,105.15,134.16,132.94,100,132.94z M45.46,70.84l0.01,0.2C45.57,101,70.03,125.38,100,125.38
			c30,0,54.47-24.41,54.54-54.41v-0.14c0-30.08-24.47-54.54-54.54-54.54S45.46,40.76,45.46,70.84L45.46,70.84
			C45.46,70.84,45.46,70.84,45.46,70.84z"/>
	</g>
	<g>
		<path class="st4" d="M129.16,89.2c-10.12,0-18.36-8.24-18.36-18.36s8.24-18.36,18.36-18.36c10.12,0,18.36,8.24,18.36,18.36
			S139.29,89.2,129.16,89.2z M129.16,60.04c-5.96,0-10.8,4.85-10.8,10.8c0,5.96,4.85,10.8,10.8,10.8c5.96,0,10.8-4.85,10.8-10.8
			C139.96,64.88,135.12,60.04,129.16,60.04z"/>
	</g>
	<g>
		<path class="st4" d="M70.84,89.2c-10.12,0-18.36-8.24-18.36-18.36s8.24-18.36,18.36-18.36S89.2,60.71,89.2,70.84
			S80.96,89.2,70.84,89.2z M70.84,60.04c-5.96,0-10.8,4.85-10.8,10.8c0,5.96,4.85,10.8,10.8,10.8c5.96,0,10.8-4.85,10.8-10.8
			C81.64,64.88,76.79,60.04,70.84,60.04z"/>
	</g>
	<g>
		<path class="st4" d="M41.68,75.03c-2.09,0-3.78-1.67-3.78-3.76c0-0.11,0-0.22,0.01-0.33c0.17-18,14.73-32.81,32.5-33.05
			c0.15,0,0.29,0,0.44,0c8.72,0,16.92,3.36,23.14,9.5c6.32,6.24,9.8,14.57,9.8,23.45c0,2.09-1.69,3.78-3.78,3.78
			s-3.78-1.69-3.78-3.78c0-6.84-2.68-13.26-7.55-18.07c-4.87-4.81-11.34-7.39-18.17-7.32c-13.71,0.18-24.94,11.68-25.04,25.62
			l-0.01,0.19C45.43,73.34,43.75,75.03,41.68,75.03z"/>
	</g>
	<g>
		<path class="st4" d="M70.84,78.4c-4.17,0-7.56-3.39-7.56-7.56s3.39-7.56,7.56-7.56s7.56,3.39,7.56,7.56S75.01,78.4,70.84,78.4z
			 M70.84,68.68c-1.19,0-2.16,0.97-2.16,2.16c0,1.19,0.97,2.16,2.16,2.16c1.19,0,2.16-0.97,2.16-2.16
			C73,69.65,72.03,68.68,70.84,68.68z"/>
	</g>
	<g>
		<path class="st4" d="M129.16,78.4c-4.17,0-7.56-3.39-7.56-7.56s3.39-7.56,7.56-7.56c4.17,0,7.56,3.39,7.56,7.56
			S133.33,78.4,129.16,78.4z M129.16,68.68c-1.19,0-2.16,0.97-2.16,2.16c0,1.19,0.97,2.16,2.16,2.16c1.19,0,2.16-0.97,2.16-2.16
			C131.32,69.65,130.35,68.68,129.16,68.68z"/>
	</g>
</g>
</svg>
