<svg id="b22e3f3c-c3b3-4516-848f-594331b98852" data-name="Ebene 1" xmlns="http://www.w3.org/2000/svg" viewBox="0 0 200 200"><defs><style>.f5535a02-f6c3-4f48-a41a-31d50a1e071e{fill:#8c9eff;}.a26d54a0-cb5a-487c-a136-bf4558fff614,.b0a47900-8e82-431f-a235-03a408cb8260{fill:#fff;}.a26d54a0-cb5a-487c-a136-bf4558fff614,.a7ce213a-cc70-4c35-ace1-e1c57fe7ab46,.b0a47900-8e82-431f-a235-03a408cb8260,.ecb51b5e-a7d6-41a0-b0d4-9aa0d70a74f6{stroke:#000;}.a26d54a0-cb5a-487c-a136-bf4558fff614,.a7ce213a-cc70-4c35-ace1-e1c57fe7ab46,.b0a47900-8e82-431f-a235-03a408cb8260,.b0b7b636-8cd4-4699-b4f0-96dfa58d5724,.b0e668d4-4009-475b-a87b-72d9c95aebee,.be8e4a79-9818-4776-843f-d9fbd64db8e5,.ec0c94c4-65d3-4be5-832d-baa94aec7970,.ecb51b5e-a7d6-41a0-b0d4-9aa0d70a74f6{stroke-linecap:round;}.a26d54a0-cb5a-487c-a136-bf4558fff614,.a7ce213a-cc70-4c35-ace1-e1c57fe7ab46,.b0a47900-8e82-431f-a235-03a408cb8260,.b0b7b636-8cd4-4699-b4f0-96dfa58d5724,.b0e668d4-4009-475b-a87b-72d9c95aebee,.ecb51b5e-a7d6-41a0-b0d4-9aa0d70a74f6{stroke-linejoin:round;}.a7ce213a-cc70-4c35-ace1-e1c57fe7ab46,.b0a47900-8e82-431f-a235-03a408cb8260{stroke-width:3px;}.a7ce213a-cc70-4c35-ace1-e1c57fe7ab46{fill:#fff9c4;}.be8e4a79-9818-4776-843f-d9fbd64db8e5,.ec0c94c4-65d3-4be5-832d-baa94aec7970,.ecb51b5e-a7d6-41a0-b0d4-9aa0d70a74f6{fill:none;}.b0e668d4-4009-475b-a87b-72d9c95aebee,.be8e4a79-9818-4776-843f-d9fbd64db8e5{stroke:#304ffe;}.b0b7b636-8cd4-4699-b4f0-96dfa58d5724,.b0e668d4-4009-475b-a87b-72d9c95aebee,.be8e4a79-9818-4776-843f-d9fbd64db8e5,.ec0c94c4-65d3-4be5-832d-baa94aec7970{stroke-width:2px;}.b0b7b636-8cd4-4699-b4f0-96dfa58d5724,.ec0c94c4-65d3-4be5-832d-baa94aec7970{stroke:#69f0ae;}.b0e668d4-4009-475b-a87b-72d9c95aebee{fill:#304ffe;}.b0b7b636-8cd4-4699-b4f0-96dfa58d5724{fill:#69f0ae;}</style></defs><title>Karteikasten</title><circle class="f5535a02-f6c3-4f48-a41a-31d50a1e071e" cx="98.83" cy="100.29" r="58"/><rect class="b0a47900-8e82-431f-a235-03a408cb8260" x="54.61" y="142.99" width="88.22" height="6.3"/><rect class="a7ce213a-cc70-4c35-ace1-e1c57fe7ab46" x="66.58" y="100.14" width="64.27" height="42.85"/><rect class="b0a47900-8e82-431f-a235-03a408cb8260" x="83.6" y="106.44" width="30.25" height="5.04"/><rect class="b0a47900-8e82-431f-a235-03a408cb8260" x="79.81" y="76.19" width="41.59" height="18.9"/><rect class="b0a47900-8e82-431f-a235-03a408cb8260" x="67.36" y="64.52" width="40.34" height="26.15" transform="translate(-24.42 43.7) rotate(-24.71)"/><line class="a26d54a0-cb5a-487c-a136-bf4558fff614" x1="66.12" y1="79.32" x2="102.77" y2="62.45"/><line class="a26d54a0-cb5a-487c-a136-bf4558fff614" x1="72.25" y1="80.45" x2="97.46" y2="68.63"/><line class="a26d54a0-cb5a-487c-a136-bf4558fff614" x1="73.51" y1="84.24" x2="96.2" y2="73.67"/><line class="a26d54a0-cb5a-487c-a136-bf4558fff614" x1="74.77" y1="87.53" x2="102.5" y2="74.93"/><rect class="b0a47900-8e82-431f-a235-03a408cb8260" x="76.03" y="85.01" width="50.41" height="15.12"/><rect class="b0a47900-8e82-431f-a235-03a408cb8260" x="70.99" y="90.05" width="44.11" height="10.08"/><line class="ecb51b5e-a7d6-41a0-b0d4-9aa0d70a74f6" x1="72.25" y1="95.1" x2="115.1" y2="95.1"/><line class="ecb51b5e-a7d6-41a0-b0d4-9aa0d70a74f6" x1="115.1" y1="91.31" x2="125.18" y2="91.31"/><path class="be8e4a79-9818-4776-843f-d9fbd64db8e5" d="M95.83,47.29c0-3.15,4-3.15,4-6.29s-4-3.14-4-6.29"/><path class="ec0c94c4-65d3-4be5-832d-baa94aec7970" d="M73.13,58.34c-1.62-2.61,1.77-4.72.15-7.33s-5-.51-6.65-3.13,1.78-4.72.15-7.34-5-.51-6.65-3.13"/><line class="be8e4a79-9818-4776-843f-d9fbd64db8e5" x1="55.29" y1="73.65" x2="38.32" y2="63.86"/><line class="ec0c94c4-65d3-4be5-832d-baa94aec7970" x1="57.83" y1="99.05" x2="37.83" y2="99.05"/><path class="be8e4a79-9818-4776-843f-d9fbd64db8e5" d="M58.37,124.49c-2.41,1.39-4.41-2.07-6.82-.68s-.41,4.86-2.82,6.25-4.41-2.07-6.83-.68"/><line class="be8e4a79-9818-4776-843f-d9fbd64db8e5" x1="134.56" y1="119.44" x2="153.03" y2="130.1"/><path class="ec0c94c4-65d3-4be5-832d-baa94aec7970" d="M143.83,96.38c3.25,0,3.25,4,6.49,4s3.25-4,6.5-4,3.25,4,6.5,4,3.26-4,6.51-4"/><path class="be8e4a79-9818-4776-843f-d9fbd64db8e5" d="M131.47,77c2.77-1.6,4.77,1.87,7.54.27s.77-5.07,3.54-6.67,4.77,1.87,7.54.27.77-5.07,3.55-6.67,4.77,1.87,7.54.26"/><line class="ec0c94c4-65d3-4be5-832d-baa94aec7970" x1="118.88" y1="62.16" x2="128.31" y2="45.83"/><rect class="b0e668d4-4009-475b-a87b-72d9c95aebee" x="37.83" y="80.71" width="8" height="8" transform="translate(72.15 -4.77) rotate(45)"/><rect class="b0b7b636-8cd4-4699-b4f0-96dfa58d5724" x="56.83" y="107.29" width="4" height="4"/><circle class="b0e668d4-4009-475b-a87b-72d9c95aebee" cx="111.83" cy="44.29" r="5"/><circle class="b0e668d4-4009-475b-a87b-72d9c95aebee" cx="134.83" cy="89.29" r="2"/><circle class="b0b7b636-8cd4-4699-b4f0-96dfa58d5724" cx="57.83" cy="60.71" r="4"/><circle class="b0e668d4-4009-475b-a87b-72d9c95aebee" cx="113.83" cy="156.29" r="3"/><rect class="b0b7b636-8cd4-4699-b4f0-96dfa58d5724" x="135.83" y="52.71" width="8" height="8"/><rect class="b0b7b636-8cd4-4699-b4f0-96dfa58d5724" x="145.59" y="108.53" width="6" height="6" transform="translate(122.38 -72.4) rotate(45)"/><line class="ec0c94c4-65d3-4be5-832d-baa94aec7970" x1="98.83" y1="153.29" x2="98.83" y2="161.29"/></svg>