<svg id="a9eca5c5-819b-424a-9374-fa8b9983edca" data-name="Ebene 1" xmlns="http://www.w3.org/2000/svg" viewBox="0 0 200 200"><defs><style>.ba938b07-80f5-42b7-8473-7b33cbe2b919{fill:#69f0ae;}.fc8dff2a-7d0c-4951-9332-d7e67a8005cb{fill:#fff;fill-rule:evenodd;}.a5a0a6b4-0136-483c-af54-3e5727977b04,.eecd08d1-4856-43bc-82f0-d9d50262393a,.fc8dff2a-7d0c-4951-9332-d7e67a8005cb{stroke:#212121;}.a56d41d7-519a-4a79-a84c-bf4f6b679ff1,.a5a0a6b4-0136-483c-af54-3e5727977b04,.a9946914-6d73-452e-9175-bfea7e5d10bf,.b3a308ef-c4cd-45d3-b9c3-b9fd5cb6a902,.eecd08d1-4856-43bc-82f0-d9d50262393a,.eecfb499-6da1-4a08-bbe2-79c7e753cc55,.fc8dff2a-7d0c-4951-9332-d7e67a8005cb{stroke-linecap:round;stroke-linejoin:round;}.a5a0a6b4-0136-483c-af54-3e5727977b04,.fc8dff2a-7d0c-4951-9332-d7e67a8005cb{stroke-width:3px;}.a5a0a6b4-0136-483c-af54-3e5727977b04{fill:#fff9c4;}.a9946914-6d73-452e-9175-bfea7e5d10bf,.eecd08d1-4856-43bc-82f0-d9d50262393a,.eecfb499-6da1-4a08-bbe2-79c7e753cc55{fill:none;}.a9946914-6d73-452e-9175-bfea7e5d10bf,.b3a308ef-c4cd-45d3-b9c3-b9fd5cb6a902{stroke:#00c853;}.a56d41d7-519a-4a79-a84c-bf4f6b679ff1,.a9946914-6d73-452e-9175-bfea7e5d10bf,.b3a308ef-c4cd-45d3-b9c3-b9fd5cb6a902,.eecfb499-6da1-4a08-bbe2-79c7e753cc55{stroke-width:2px;}.a56d41d7-519a-4a79-a84c-bf4f6b679ff1,.eecfb499-6da1-4a08-bbe2-79c7e753cc55{stroke:#8c9eff;}.b3a308ef-c4cd-45d3-b9c3-b9fd5cb6a902{fill:#00c853;}.a56d41d7-519a-4a79-a84c-bf4f6b679ff1{fill:#8c9eff;}</style></defs><title>Glühbirne</title><circle class="ba938b07-80f5-42b7-8473-7b33cbe2b919" cx="99.14" cy="99.38" r="58"/><path class="fc8dff2a-7d0c-4951-9332-d7e67a8005cb" d="M131.14,98.38a32,32,0,1,0-52.93,24.2,19.62,19.62,0,0,1,6.93,14.8h0a3,3,0,0,0,3,3h22a3,3,0,0,0,3-3h0a19.26,19.26,0,0,1,6.77-14.65A31.94,31.94,0,0,0,131.14,98.38Z"/><rect class="a5a0a6b4-0136-483c-af54-3e5727977b04" x="85.14" y="140.38" width="28" height="12" rx="3"/><rect class="a5a0a6b4-0136-483c-af54-3e5727977b04" x="89.14" y="152.38" width="20" height="6" rx="3"/><rect class="a5a0a6b4-0136-483c-af54-3e5727977b04" x="93.14" y="158.38" width="12" height="6" rx="3"/><path class="eecd08d1-4856-43bc-82f0-d9d50262393a" d="M96.46,140.38V118.92s0-16.1-8-16.1,0,16.1,10.73,16.1,18.78-16.1,10.73-16.1-8.05,16.1-8.05,16.1v21.46"/><path class="a9946914-6d73-452e-9175-bfea7e5d10bf" d="M97.14,58.38c0-3,4-3,4-6s-4-3-4-6,4-3,4-6-4-3-4-6"/><path class="eecfb499-6da1-4a08-bbe2-79c7e753cc55" d="M77.41,64.74c-1.6-2.77,1.86-4.77.26-7.54s-5.06-.77-6.66-3.54,1.87-4.77.27-7.54-5.07-.78-6.67-3.55,1.86-4.77.26-7.55"/><line class="a9946914-6d73-452e-9175-bfea7e5d10bf" x1="56.6" y1="73.32" x2="39.63" y2="63.52"/><line class="a9946914-6d73-452e-9175-bfea7e5d10bf" x1="59.14" y1="98.71" x2="39.14" y2="98.71"/><path class="eecfb499-6da1-4a08-bbe2-79c7e753cc55" d="M65.78,120.59c-2.57,1.49-4.57-2-7.14-.49s-.58,5-3.15,6.43-4.57-2-7.15-.49-.57,5-3.14,6.43"/><path class="a9946914-6d73-452e-9175-bfea7e5d10bf" d="M75.34,144.49c-1.68,2.91-5.15.91-6.83,3.82s1.79,4.91.11,7.82-5.15.91-6.83,3.82"/><line class="eecfb499-6da1-4a08-bbe2-79c7e753cc55" x1="128.48" y1="143.07" x2="136.41" y2="156.8"/><line class="a9946914-6d73-452e-9175-bfea7e5d10bf" x1="135.87" y1="119.11" x2="154.34" y2="129.77"/><path class="eecfb499-6da1-4a08-bbe2-79c7e753cc55" d="M145.14,96c3.25,0,3.25,4,6.49,4s3.25-4,6.5-4,3.25,4,6.51,4,3.25-4,6.5-4"/><path class="a9946914-6d73-452e-9175-bfea7e5d10bf" d="M132.78,76.65c2.77-1.6,4.77,1.86,7.54.26s.77-5.06,3.54-6.66,4.77,1.86,7.54.26.77-5.06,3.55-6.66,4.77,1.86,7.54.26"/><line class="eecfb499-6da1-4a08-bbe2-79c7e753cc55" x1="120.19" y1="61.83" x2="129.62" y2="45.5"/><rect class="b3a308ef-c4cd-45d3-b9c3-b9fd5cb6a902" x="39.14" y="80.38" width="8" height="8" transform="translate(72.3 -5.79) rotate(45)"/><rect class="b3a308ef-c4cd-45d3-b9c3-b9fd5cb6a902" x="109.14" y="56.38" width="4" height="4"/><circle class="b3a308ef-c4cd-45d3-b9c3-b9fd5cb6a902" cx="158.14" cy="113.38" r="5"/><circle class="b3a308ef-c4cd-45d3-b9c3-b9fd5cb6a902" cx="71.14" cy="132.38" r="2"/><circle class="a56d41d7-519a-4a79-a84c-bf4f6b679ff1" cx="59.14" cy="60.38" r="4"/><circle class="a56d41d7-519a-4a79-a84c-bf4f6b679ff1" cx="130.14" cy="131.38" r="3"/><rect class="a56d41d7-519a-4a79-a84c-bf4f6b679ff1" x="137.14" y="52.38" width="8" height="8"/><rect class="a56d41d7-519a-4a79-a84c-bf4f6b679ff1" x="36.38" y="108.38" width="6" height="6" transform="translate(90.29 4.77) rotate(45)"/></svg>