<?xml version="1.0" encoding="utf-8"?>
<!-- Generator: Adobe Illustrator 23.0.0, SVG Export Plug-In . SVG Version: 6.00 Build 0)  -->
<svg version="1.1" id="Ebene_1" xmlns="http://www.w3.org/2000/svg" xmlns:xlink="http://www.w3.org/1999/xlink" x="0px" y="0px"
	 viewBox="0 0 200 200" style="enable-background:new 0 0 200 200;" xml:space="preserve">
<style type="text/css">
	.st0{fill:#00C853;}
	.st1{fill:#8C9EFF;}
	.st2{fill:#69F0AE;}
	.st3{fill:#FFF9C4;}
	.st4{fill:#1A237E;}
</style>
<g>
	<g>
		<path class="st0" d="M100,41.68c32.21,0,58.32,26.11,58.32,58.32c0,0.05,0,0.1,0,0.15c-0.08-15.87-12.72-29.08-28.6-29.3
			C113.43,70.61,100,83.75,100,100c0-16.23-13.27-29.37-29.55-29.16c-15.95,0.21-28.66,13.45-28.77,29.38
			c-0.01-0.07-0.01-0.15-0.01-0.22C41.68,67.79,67.79,41.68,100,41.68z"/>
	</g>
	<g>
		<path class="st1" d="M129.16,85.42c8.05,0,14.58,6.53,14.58,14.58s-6.53,14.58-14.58,14.58s-14.58-6.53-14.58-14.58
			S121.11,85.42,129.16,85.42z M134.02,100c0-2.68-2.18-4.86-4.86-4.86c-2.68,0-4.86,2.18-4.86,4.86s2.18,4.86,4.86,4.86
			C131.85,104.86,134.02,102.68,134.02,100z"/>
	</g>
	<g>
		<path class="st1" d="M70.84,85.42c8.05,0,14.58,6.53,14.58,14.58s-6.53,14.58-14.58,14.58S56.26,108.05,56.26,100
			S62.79,85.42,70.84,85.42z M75.7,100c0-2.68-2.18-4.86-4.86-4.86c-2.68,0-4.86,2.18-4.86,4.86s2.18,4.86,4.86,4.86
			C73.52,104.86,75.7,102.68,75.7,100z"/>
	</g>
	<g>
		<circle class="st2" cx="129.16" cy="100" r="4.86"/>
	</g>
	<g>
		<circle class="st2" cx="70.84" cy="100" r="4.86"/>
	</g>
	<g>
		<path class="st3" d="M100,100c0-16.25,13.43-29.39,29.72-29.16c15.88,0.23,28.53,13.43,28.6,29.3
			c-0.08,32.15-26.16,58.18-58.32,58.18c-32.14,0-58.21-25.99-58.32-58.11c0.11-15.93,12.82-29.17,28.77-29.38
			C86.73,70.63,100,83.77,100,100z M143.74,100c0-8.05-6.53-14.58-14.58-14.58s-14.58,6.53-14.58,14.58s6.53,14.58,14.58,14.58
			S143.74,108.05,143.74,100z M85.42,100c0-8.05-6.53-14.58-14.58-14.58S56.26,91.95,56.26,100s6.53,14.58,14.58,14.58
			S85.42,108.05,85.42,100z"/>
	</g>
	<g>
		<path class="st4" d="M100,123.22c-2.09,0-3.78-1.69-3.78-3.78V100c0-8.84,3.49-17.15,9.82-23.39c6.37-6.28,14.8-9.67,23.74-9.55
			c17.74,0.25,32.24,15.09,32.33,33.06v0.16c0,2.09-1.69,3.78-3.78,3.78s-3.78-1.69-3.78-3.78v-0.15
			c-0.07-13.87-11.22-25.33-24.87-25.52c-6.91-0.07-13.41,2.52-18.33,7.37c-4.88,4.81-7.56,11.2-7.56,18.01v19.44
			C103.78,121.53,102.09,123.22,100,123.22z"/>
	</g>
	<g>
		<path class="st4" d="M100,162.11c-34.09,0-61.93-27.71-62.1-61.79c0-0.11-0.01-0.21-0.01-0.32c0-34.24,27.86-62.11,62.11-62.11
			s62.11,27.86,62.11,62.11v0.15C162.02,134.31,134.16,162.11,100,162.11z M45.46,100l0.01,0.2c0.11,29.96,24.57,54.34,54.54,54.34
			c30,0,54.47-24.41,54.54-54.41V100c0-30.08-24.47-54.54-54.54-54.54S45.46,69.92,45.46,100L45.46,100
			C45.46,100,45.46,100,45.46,100z"/>
	</g>
	<g>
		<path class="st4" d="M129.16,118.36c-10.12,0-18.36-8.24-18.36-18.36s8.24-18.36,18.36-18.36c10.12,0,18.36,8.24,18.36,18.36
			S139.29,118.36,129.16,118.36z M129.16,89.2c-5.96,0-10.8,4.85-10.8,10.8s4.85,10.8,10.8,10.8c5.96,0,10.8-4.85,10.8-10.8
			S135.12,89.2,129.16,89.2z"/>
	</g>
	<g>
		<path class="st4" d="M70.84,118.36c-10.12,0-18.36-8.24-18.36-18.36s8.24-18.36,18.36-18.36S89.2,89.88,89.2,100
			S80.96,118.36,70.84,118.36z M70.84,89.2c-5.96,0-10.8,4.85-10.8,10.8s4.85,10.8,10.8,10.8c5.96,0,10.8-4.85,10.8-10.8
			S76.79,89.2,70.84,89.2z"/>
	</g>
	<g>
		<path class="st4" d="M41.68,104.19c-2.09,0-3.78-1.67-3.78-3.76c0-0.11,0-0.22,0.01-0.33c0.17-18,14.73-32.81,32.5-33.05
			c0.15,0,0.29,0,0.44,0c8.72,0,16.92,3.36,23.14,9.5c6.32,6.24,9.8,14.57,9.8,23.45c0,2.09-1.69,3.78-3.78,3.78
			s-3.78-1.69-3.78-3.78c0-6.84-2.68-13.26-7.55-18.07c-4.87-4.81-11.34-7.39-18.17-7.32c-13.71,0.18-24.94,11.68-25.04,25.62
			l-0.01,0.19C45.43,102.5,43.75,104.19,41.68,104.19z"/>
	</g>
	<g>
		<path class="st4" d="M70.84,107.56c-4.17,0-7.56-3.39-7.56-7.56s3.39-7.56,7.56-7.56s7.56,3.39,7.56,7.56
			S75.01,107.56,70.84,107.56z M70.84,97.84c-1.19,0-2.16,0.97-2.16,2.16s0.97,2.16,2.16,2.16c1.19,0,2.16-0.97,2.16-2.16
			S72.03,97.84,70.84,97.84z"/>
	</g>
	<g>
		<path class="st4" d="M129.16,107.56c-4.17,0-7.56-3.39-7.56-7.56s3.39-7.56,7.56-7.56c4.17,0,7.56,3.39,7.56,7.56
			S133.33,107.56,129.16,107.56z M129.16,97.84c-1.19,0-2.16,0.97-2.16,2.16s0.97,2.16,2.16,2.16c1.19,0,2.16-0.97,2.16-2.16
			S130.35,97.84,129.16,97.84z"/>
	</g>
</g>
</svg>
